<svg width="508" height="380" viewBox="0 0 508 380" fill="none" xmlns="http://www.w3.org/2000/svg">
<path d="M325.37 240.459C336.763 240.459 346 230.756 346 218.783C346 206.815 336.763 197.111 325.37 197.111C313.976 197.111 304.734 206.815 304.734 218.783C304.734 221.474 305.226 224.044 306.081 226.422L280.956 246.143C275.551 240.954 268.379 237.764 260.484 237.764C257.973 237.764 255.548 238.12 253.215 238.724L239.293 206.395C242.668 203.083 244.795 198.378 244.795 193.144C244.795 183.122 237.064 175 227.522 175C217.987 175 210.253 183.122 210.253 193.144C210.253 203.163 217.987 211.285 227.522 211.285C228.363 211.285 229.185 211.197 229.996 211.076L243.758 243.049C237.648 247.288 233.103 253.791 231.158 261.418L207.354 259.299C205.525 247.96 196.161 239.319 184.847 239.319C172.228 239.319 162 250.066 162 263.32C162 276.577 172.228 287.324 184.847 287.324C194.814 287.324 203.266 280.612 206.391 271.265L230.305 273.393C231.377 283.141 236.623 291.532 244.123 296.579L239.439 308.918L235.082 320.406C233.546 320.136 231.975 319.964 230.368 319.964C214.58 319.964 201.792 333.4 201.792 349.978C201.792 366.562 214.58 380 230.368 380C246.146 380 258.941 366.562 258.941 349.978C258.941 339.607 253.928 330.464 246.313 325.067L250.718 313.446L255.384 301.146C257.047 301.442 258.74 301.629 260.484 301.629C270.982 301.629 280.242 296.038 285.701 287.535L306.725 298.258C306.55 299.263 306.439 300.294 306.439 301.35C306.439 310.677 313.641 318.236 322.518 318.236C331.395 318.236 338.592 310.677 338.592 301.35C338.592 292.019 331.395 284.461 322.518 284.461C317.699 284.461 313.391 286.698 310.449 290.221L289.41 279.489C290.355 276.404 290.877 273.114 290.877 269.695C290.877 264.691 289.75 259.974 287.803 255.759L312.93 236.041C316.39 238.802 320.691 240.459 325.37 240.459Z" fill="url(#paint0_linear_2228_31)"/>
<path d="M94.0928 180.643C90.9047 185.051 87.4148 188.293 83.6231 190.369C79.8688 192.392 75.5689 193.587 70.7233 193.953L68.7858 181.889C72.0747 181.819 75.0844 181.152 77.8149 179.889C80.4935 178.588 82.9393 176.407 85.1521 173.348C87.14 170.599 88.1707 168.027 88.2444 165.632C88.3556 163.185 87.4518 161.267 85.5331 159.88C83.8736 158.679 82.1877 158.171 80.4754 158.354C78.7632 158.538 76.9814 159.145 75.1302 160.175C73.3165 161.154 71.4493 162.371 69.5287 163.825C67.5936 165.19 65.5621 166.525 63.434 167.829C61.3434 169.081 59.165 170.073 56.899 170.803C54.6185 171.445 52.2333 171.576 49.7431 171.196C47.2011 170.78 44.5299 169.559 41.7296 167.533C38.4107 165.133 36.1657 162.285 34.9948 158.99C33.8239 155.694 33.6288 152.196 34.4096 148.496C35.1903 144.795 36.8559 141.182 39.4063 137.655C42.1068 133.922 45.2448 131.057 48.8203 129.062C52.3959 127.067 55.9925 125.916 59.6101 125.61L61.5476 137.675C58.6217 138.007 56.1251 138.729 54.0576 139.84C52.0277 140.899 50.2438 142.492 48.7061 144.618C46.9433 147.056 46.0223 149.312 45.943 151.387C45.8638 153.463 46.7058 155.138 48.469 156.413C49.9729 157.501 51.5291 157.915 53.1376 157.657C54.7462 157.399 56.4314 156.761 58.1932 155.745C59.9926 154.677 61.8598 153.46 63.7948 152.095C65.7673 150.679 67.7989 149.344 69.8895 148.092C72.0176 146.787 74.2478 145.833 76.5801 145.23C78.9499 144.574 81.4576 144.492 84.1033 144.984C86.6972 145.438 89.4202 146.697 92.2724 148.76C97.3545 152.435 100.054 157.112 100.37 162.791C100.686 168.469 98.5936 174.42 94.0928 180.643Z" fill="url(#paint1_linear_2228_31)"/>
<path d="M125.446 145.671L80.8881 121.663L91.4588 113.055L123.984 132.625L120.41 135.534L108.208 99.4163L118.853 90.7481L132.369 140.034L125.446 145.671ZM127.473 168.533L119.564 136.471L132.369 140.034L137.82 160.108L127.473 168.533Z" fill="url(#paint2_linear_2228_31)"/>
<path d="M181.962 111.155L171.025 86.916C169.893 84.4076 168.184 82.7212 165.898 81.8568C163.612 80.9925 161.215 81.1262 158.707 82.2581C157.073 82.9952 155.773 84.0032 154.805 85.2824C153.838 86.5615 153.265 88.0139 153.085 89.6395C152.964 91.2387 153.286 92.8843 154.049 94.576L148.56 94.3146C147.059 90.9894 146.456 87.7859 146.751 84.7041C147.077 81.5375 148.179 78.6883 150.056 76.1563C151.991 73.5981 154.562 71.595 157.771 70.1473C160.863 68.7522 163.989 68.2894 167.15 68.7589C170.284 69.17 173.118 70.314 175.65 72.1907C178.155 74.0091 180.053 76.3475 181.343 79.2059L193.425 105.982L181.962 111.155ZM153.523 123.987L134.452 81.7226L145.915 76.5501L164.986 118.815L153.523 123.987Z" fill="url(#paint3_linear_2228_31)"/>
<path d="M198.148 103.293L216.842 32.985L227.418 31.6794L262.555 95.3417L248.74 97.0473L221.183 44.637L225.947 44.0489L211.678 101.623L198.148 103.293ZM210.899 89.0477L209.558 78.1862L245.572 73.7399L246.913 84.6014L210.899 89.0477Z" fill="url(#paint4_linear_2228_31)"/>
<path d="M293.629 102.878C290.358 102.266 287.525 101.051 285.13 99.2356C282.747 97.3569 280.988 95.1065 279.851 92.4845C278.714 89.8624 278.365 87.0299 278.805 83.9868L281.827 67.8513C282.518 64.8553 283.868 62.3409 285.876 60.3078C287.96 58.2237 290.42 56.7311 293.259 55.8301C296.16 54.941 299.246 54.8027 302.517 55.4152C306.732 56.2045 310.312 57.9493 313.257 60.6495C316.203 63.3498 318.283 66.6695 319.499 70.6086C320.777 74.5594 320.993 78.7995 320.145 83.3287C319.308 87.7951 317.579 91.6385 314.958 94.859C312.399 98.0913 309.258 100.433 305.535 101.885C301.813 103.336 297.844 103.667 293.629 102.878ZM264.948 116.26L277.052 51.6232L289.413 53.938L287.169 65.9217L283.026 76.573L282.94 87.9842L277.215 118.557L264.948 116.26ZM293.597 91.0542C295.862 91.4783 297.969 91.352 299.919 90.6754C301.88 89.9358 303.504 88.7422 304.789 87.0947C306.149 85.3959 307.059 83.3199 307.518 80.8666C307.966 78.4761 307.857 76.2745 307.192 74.2617C306.602 72.1978 305.52 70.4977 303.948 69.1614C302.386 67.7621 300.474 66.8504 298.209 66.4263C296.007 66.014 293.925 66.1777 291.964 66.9172C290.014 67.5939 288.359 68.7816 286.999 70.4803C285.714 72.1279 284.848 74.1469 284.4 76.5373C283.94 78.9907 284.006 81.2493 284.596 83.3132C285.261 85.326 286.342 87.0261 287.841 88.4136C289.414 89.7499 291.332 90.6302 293.597 91.0542Z" fill="url(#paint5_linear_2228_31)"/>
<path d="M345.493 121.394C342.519 119.901 340.132 117.95 338.333 115.543C336.563 113.078 335.495 110.429 335.127 107.595C334.76 104.761 335.209 101.942 336.473 99.1395L343.84 84.4694C345.333 81.7816 347.326 79.7386 349.819 78.3405C352.397 76.914 355.175 76.1603 358.152 76.0797C361.186 76.0278 364.19 76.7486 367.164 78.2421C370.996 80.1664 373.953 82.8334 376.037 86.2431C378.12 89.6527 379.201 93.4184 379.28 97.54C379.416 101.69 378.449 105.825 376.382 109.942C374.342 114.003 371.618 117.218 368.207 119.588C364.855 121.986 361.189 123.368 357.209 123.733C353.23 124.098 349.325 123.319 345.493 121.394ZM314.229 126.32L343.741 67.5538L354.98 73.1977L349.508 84.0929L342.58 93.1825L339.341 104.125L325.382 131.921L314.229 126.32ZM348.733 110.023C350.792 111.057 352.852 111.518 354.913 111.408C357.002 111.239 358.893 110.542 360.583 109.314C362.36 108.058 363.809 106.314 364.929 104.084C366.02 101.91 366.525 99.7645 366.443 97.6463C366.446 95.4997 365.877 93.5668 364.736 91.8475C363.622 90.071 362.036 88.6657 359.977 87.6317C357.976 86.6265 355.93 86.2079 353.84 86.376C351.779 86.4868 349.86 87.1704 348.084 88.4266C346.393 89.6544 345.002 91.355 343.91 93.5283C342.79 95.7588 342.228 97.9474 342.224 100.094C342.307 102.212 342.876 104.145 343.932 105.893C345.073 107.612 346.674 108.989 348.733 110.023Z" fill="url(#paint6_linear_2228_31)"/>
<path d="M383.247 147.35C381.262 145.634 379.531 143.672 378.055 141.465C376.627 139.301 375.511 137.068 374.709 134.766C373.948 132.417 373.573 130.062 373.582 127.702L384.207 126.861C384.246 129.263 384.771 131.494 385.783 133.553C386.794 135.612 388.269 137.478 390.205 139.153C391.755 140.492 393.105 141.278 394.257 141.512C395.456 141.788 396.433 141.49 397.186 140.619C398.023 139.65 398.236 138.523 397.825 137.237C397.462 135.993 396.75 134.616 395.687 133.105C394.666 131.546 393.594 129.899 392.469 128.166C391.435 126.426 390.554 124.607 389.826 122.709C389.14 120.763 388.927 118.759 389.185 116.698C389.534 114.631 390.629 112.532 392.471 110.402C394.396 108.175 396.603 106.698 399.091 105.973C401.627 105.289 404.31 105.366 407.139 106.204C409.968 107.042 412.762 108.654 415.522 111.04C418.427 113.551 420.602 116.319 422.047 119.345C423.541 122.413 424.183 125.633 423.975 129.006L413.278 129.784C413.342 127.556 412.948 125.565 412.095 123.812C411.29 122.101 410.112 120.576 408.563 119.237C407.159 118.023 405.881 117.299 404.73 117.065C403.627 116.873 402.741 117.165 402.071 117.939C401.318 118.811 401.143 119.844 401.548 121.04C402.001 122.278 402.738 123.676 403.759 125.235C404.821 126.746 405.87 128.371 406.904 130.111C408.028 131.844 408.888 133.687 409.484 135.641C410.128 137.636 410.276 139.667 409.927 141.734C409.627 143.843 408.556 145.963 406.714 148.093C403.742 151.531 400.143 153.199 395.916 153.098C391.731 152.949 387.508 151.033 383.247 147.35Z" fill="url(#paint7_linear_2228_31)"/>
<path d="M415.469 183.019C412.639 179.063 410.959 174.954 410.427 170.691C409.948 166.391 410.54 162.269 412.204 158.325C413.905 154.433 416.655 151.127 420.455 148.409C424.203 145.728 428.148 144.204 432.292 143.836C436.525 143.483 440.58 144.202 444.458 145.992C448.387 147.745 451.674 150.47 454.318 154.165C456.924 157.809 458.382 161.606 458.69 165.556C459.087 169.522 458.412 173.309 456.667 176.919C455.01 180.543 452.386 183.64 448.795 186.209C448.118 186.693 447.378 187.144 446.575 187.561C445.861 187.993 444.987 188.421 443.953 188.846L421.198 157.202L428.85 151.729L448.198 178.61L442.036 176.762C444.2 175.056 445.776 173.299 446.764 171.491C447.789 169.734 448.208 167.9 448.021 165.988C447.923 164.091 447.185 162.18 445.807 160.254C444.355 158.224 442.621 156.789 440.604 155.95C438.639 155.073 436.526 154.814 434.264 155.173C432.092 155.547 429.887 156.534 427.649 158.135C425.359 159.774 423.652 161.624 422.531 163.685C421.498 165.762 421.09 167.942 421.308 170.226C421.577 172.472 422.475 174.663 424.002 176.797C425.38 178.723 426.939 180.243 428.681 181.358C430.475 182.435 432.432 183.081 434.553 183.295L432.841 193.608C429.404 193.313 426.189 192.229 423.197 190.357C420.242 188.536 417.666 186.09 415.469 183.019Z" fill="url(#paint8_linear_2228_31)"/>
<defs>
<linearGradient id="paint0_linear_2228_31" x1="162" y1="277.5" x2="346" y2="277.5" gradientUnits="userSpaceOnUse">
<stop stop-color="#0C6E5B"/>
<stop offset="1" stop-color="#18B596"/>
</linearGradient>
<linearGradient id="paint1_linear_2228_31" x1="47.7493" y1="179.825" x2="79.0664" y2="136.524" gradientUnits="userSpaceOnUse">
<stop stop-color="#18B596"/>
<stop offset="1" stop-color="#0C6E5B"/>
</linearGradient>
<linearGradient id="paint2_linear_2228_31" x1="86.163" y1="129.357" x2="124.763" y2="97.9254" gradientUnits="userSpaceOnUse">
<stop stop-color="#18B596"/>
<stop offset="1" stop-color="#0C6E5B"/>
</linearGradient>
<linearGradient id="paint3_linear_2228_31" x1="133.201" y1="92.487" x2="181.243" y2="70.8089" gradientUnits="userSpaceOnUse">
<stop stop-color="#18B596"/>
<stop offset="1" stop-color="#0C6E5B"/>
</linearGradient>
<linearGradient id="paint4_linear_2228_31" x1="191.7" y1="66.737" x2="258.541" y2="58.485" gradientUnits="userSpaceOnUse">
<stop stop-color="#18B596"/>
<stop offset="1" stop-color="#0C6E5B"/>
</linearGradient>
<linearGradient id="paint5_linear_2228_31" x1="269.868" y1="59.7365" x2="324.552" y2="69.977" gradientUnits="userSpaceOnUse">
<stop stop-color="#18B596"/>
<stop offset="1" stop-color="#0C6E5B"/>
</linearGradient>
<linearGradient id="paint6_linear_2228_31" x1="334.593" y1="73.3633" x2="384.311" y2="98.331" gradientUnits="userSpaceOnUse">
<stop stop-color="#18B596"/>
<stop offset="1" stop-color="#0C6E5B"/>
</linearGradient>
<linearGradient id="paint7_linear_2228_31" x1="391.912" y1="104.443" x2="423.479" y2="131.73" gradientUnits="userSpaceOnUse">
<stop stop-color="#18B596"/>
<stop offset="1" stop-color="#0C6E5B"/>
</linearGradient>
<linearGradient id="paint8_linear_2228_31" x1="430.258" y1="138.327" x2="460.072" y2="180.004" gradientUnits="userSpaceOnUse">
<stop stop-color="#18B596"/>
<stop offset="1" stop-color="#0C6E5B"/>
</linearGradient>
</defs>
</svg>
